<svg viewBox="0 0 20 20" xmlns="http://www.w3.org/2000/svg"><path d="M9.516 17.994a.75.75 0 0 1 .744.648l.006.102v.383a.75.75 0 0 1-1.493.102l-.007-.102v-.383a.75.75 0 0 1 .75-.75zM9.511.259l6.216 3.66.068-.044 2.165-1.25a.75.75 0 0 1 .75 1.3L16.53 5.18v7.428l-7.02 4.133-6.302-3.71-1.81 1.046a.75.75 0 0 1-.75-1.3l1.84-1.062V5.336L.65 4.275a.75.75 0 0 1-.319-.933l.045-.092a.75.75 0 0 1 .933-.319l.092.045 1.765 1.018L9.511.26zm0 1.741-5.52 3.25v6.5L9.51 15l5.52-3.25v-6.5L9.512 2zm4.466 7.701v1.428l-4.466 2.63-1.17-.689 5.636-3.369zm-4.466-6.46 4.467 2.63v1.446l-5.7-3.35 1.233-.726z"/></svg>