<svg viewBox="0 0 20 20" xmlns="http://www.w3.org/2000/svg"><path d="M19.006 2.998c.406 0 .742.282.795.648l.008.102v.861c0 .414-.36.75-.803.75-.407 0-.743-.282-.796-.648l-.008-.102v-.112H9.967l-4.07 11.486c-.22.622-1.108.687-1.448.156l-.057-.107-2.066-4.498H.803c-.407 0-.742-.282-.796-.648L0 10.784c0-.38.302-.693.694-.743l.11-.007h2.061c.286 0 .546.14.69.365l.053.1 1.445 3.09L8.625 3.512a.791.791 0 0 1 .649-.507l.113-.007h9.619zm-2.382 5.2a.75.75 0 0 1 1.05 1.048l-.073.084-2.444 2.444 2.444 2.443a.75.75 0 0 1-.977 1.133l-.084-.072-2.443-2.443-2.444 2.443-.084.072a.75.75 0 0 1-1.05-1.049l.073-.084 2.444-2.443-2.444-2.444a.75.75 0 0 1 .977-1.133l.084.073 2.444 2.443L16.54 8.27l.084-.073z"/></svg>