<?xml version="1.0" encoding="utf-8"?>
<!-- Generator: Adobe Illustrator 22.0.1, SVG Export Plug-In . SVG Version: 6.00 Build 0)  -->
<svg version="1.1" id="Layer_1" xmlns="http://www.w3.org/2000/svg" xmlns:xlink="http://www.w3.org/1999/xlink" x="0px" y="0px"
	 viewBox="0 0 300 261.7" style="enable-background:new 0 0 300 261.7;" xml:space="preserve">
<style type="text/css">
	.st0{fill:#FFFFFF;}
	.st1{fill:#EF4A5F;}
	.st2{fill:#C8202F;}
</style>
<path class="st0" d="M300,32.8c0-16.4-13.4-29.7-29.9-29.7c-2.9,0-7.2,0.8-7.2,0.8c-37.9,9.1-71.3,14-112,14c-0.3,0-0.6,0-1,0
	c-16.5,0-29.9,13.3-29.9,29.7c0,16.4,13.4,29.7,29.9,29.7l0,0c45.3,0,83.1-5.3,125.3-15.3h0C289.3,59.5,300,47.4,300,32.8"/>
<path class="st0" d="M90.2,257.7c-11.4,0-21.9-6.4-27-16.7l-60-119.9c-7.5-14.9-1.4-33.1,13.5-40.5c14.9-7.5,33.1-1.4,40.5,13.5
	l27.3,54.7L121.1,39c5.3-15.8,22.4-24.4,38.2-19.1c15.8,5.3,24.4,22.4,19.1,38.2l-59.6,179c-3.9,11.6-14.3,19.7-26.5,20.6
	C91.6,257.7,90.9,257.7,90.2,257.7"/>
<g>
	<g>
		<path class="st1" d="M90.2,257.7c-11.4,0-21.9-6.4-27-16.7l-60-119.9c-7.5-14.9-1.4-33.1,13.5-40.5c14.9-7.5,33.1-1.4,40.5,13.5
			l27.3,54.7L121.1,39c5.3-15.8,22.4-24.4,38.2-19.1c15.8,5.3,24.4,22.4,19.1,38.2l-59.6,179c-3.9,11.6-14.3,19.7-26.5,20.6
			C91.6,257.7,90.9,257.7,90.2,257.7"/>
	</g>
</g>
<g>
	<g>
		<path class="st2" d="M300,32.8c0-16.4-13.4-29.7-29.9-29.7c-2.9,0-7.2,0.8-7.2,0.8c-37.9,9.1-71.3,14-112,14c-0.3,0-0.6,0-1,0
			c-16.5,0-29.9,13.3-29.9,29.7c0,16.4,13.4,29.7,29.9,29.7l0,0c45.3,0,83.1-5.3,125.3-15.3h0C289.3,59.5,300,47.4,300,32.8"/>
	</g>
</g>
</svg>
