<?xml version="1.0" encoding="utf-8"?>
<!-- Generator: Adobe Illustrator 22.0.1, SVG Export Plug-In . SVG Version: 6.00 Build 0)  -->
<svg version="1.1" id="Layer_1" xmlns="http://www.w3.org/2000/svg" xmlns:xlink="http://www.w3.org/1999/xlink" x="0px" y="0px"
	 viewBox="0 0 40.3 49.5" style="enable-background:new 0 0 40.3 49.5;" xml:space="preserve">
<style type="text/css">
	.st0{fill:#A4CF61;}
</style>
<path class="st0" d="M39.2,12.1c0-1.9-1.1-3.6-2.7-4.4L24.5,0.9l0,0c-0.7-0.4-1.5-0.6-2.4-0.6c-0.9,0-1.7,0.2-2.4,0.6l0,0L2.3,10.8
	l0,0C0.9,11.7,0,13.2,0,14.9h0v19.6h0c0,1.7,0.9,3.3,2.3,4.1l0,0l17.4,9.9l0,0c0.7,0.4,1.5,0.6,2.4,0.6c0.9,0,1.7-0.2,2.4-0.6l0,0
	l12.2-6.9h0c1.5-0.8,2.6-2.5,2.6-4.3c0-2.7-2.2-4.9-4.9-4.9c-0.9,0-1.8,0.3-2.5,0.7l0,0l-9.7,5.6l-12.3-7V17.8l12.3-7l9.9,5.7l0,0
	c0.7,0.4,1.5,0.6,2.4,0.6C37,17,39.2,14.8,39.2,12.1"/>
</svg>
